{"title":"The Lorax (2012) [HSBS] [3D] [Greek Audio]","uid":8392063,"size":1758285869,"categoryP":"video","categoryS":"3d","magnet":"?xt=urn:btih:dbcfc12dcbb13ceaac920d7093b1100afa15c4af&amp;dn=The+Lorax+%282012%29+%5BHSBS%5D+%5B3D%5D+%5BGreek+Audio%5D&amp;tr=udp%3A%2F%2Ftracker.openbittorrent.com%3A80&amp;tr=udp%3A%2F%2Fopen.demonii.com%3A1337&amp;tr=udp%3A%2F%2Ftracker.coppersurfer.tk%3A6969&amp;tr=udp%3A%2F%2Fexodus.desync.com%3A6969","seeders":2,"leechers":0,"uploader":"alka10ss","files":1,"time":1366463039,"description":"General\n\nComplete name                            : The.Lorax.2012.HSBS.3D.BluRay.x264.YIFY.GreekAudio.mkv\nFormat                                   : Matroska\nFormat version                           : Version 4 / Version 2\nFile size                                : 1.64 GiB\nDuration                                 : 1h 26mn\nOverall bit rate mode                    : Variable\nOverall bit rate                         : 2 716 Kbps\nEncoded date                             : UTC 2013-03-30 16:56:18\nWriting application                      : mkvmerge v6.1.0 ('Old Devil') built on Mar  2 2013 14:32:37\nWriting library                          : libebml v1.3.0 + libmatroska v1.4.0\n\nVideo\n\nID                                       : 1\nFormat                                   : AVC\nFormat/Info                              : Advanced Video Codec\nFormat profile                           : &lt;a class=&quot;__cf_email__&quot; href=&quot;/cdn-cgi/l/email-protection&quot; data-cfemail=&quot;9dd5f4faf5ddd1a9b3ad&quot;&gt;[email&amp;#160;protected]&lt;/a&gt;&lt;script cf-hash='f9e31' type=&quot;text/javascript&quot;&gt;\n/* &lt;![CDATA[ */!function(){try{var t=&quot;currentScript&quot;in document?document.currentScript:function(){for(var t=document.getElementsByTagName(&quot;script&quot;),e=t.length;e--;)if(t[e].getAttribute(&quot;cf-hash&quot;))return t[e]}();if(t&amp;&amp;t.previousSibling){var e,r,n,i,c=t.previousSibling,a=c.getAttribute(&quot;data-cfemail&quot;);if(a){for(e=&quot;&quot;,r=parseInt(a.substr(0,2),16),n=2;a.length-n;n+=2)i=parseInt(a.substr(n,2),16)^r,e+=String.fromCharCode(i);e=document.createTextNode(e),c.parentNode.replaceChild(e,c)}}}catch(u){}}();/* ]]&gt; */&lt;/script&gt;\nFormat settings, CABAC                   : Yes\nFormat settings, ReFrames                : 3 frames\nCodec ID                                 : V_MPEG4/ISO/AVC\nDuration                                 : 1h 26mn\nBit rate mode                            : Variable\nBit rate                                 : 2 400 Kbps\nMaximum bit rate                         : 25.0 Mbps\nWidth                                    : 1 920 pixels\nHeight                                   : 1 080 pixels\nDisplay aspect ratio                     : 16:9\nFrame rate mode                          : Constant\nFrame rate                               : 23.976 fps\nColor space                              : YUV\nChroma subsampling                       : 4:2:0\nBit depth                                : 8 bits\nScan type                                : Progressive\nBits/(Pixel*Frame)                       : 0.048\nStream size                              : 1.41 GiB (86%)\nWriting library                          : x264 core 125 r2200 999b753\nEncoding settings                        : cabac=1 / ref=3 / deblock=1:0:0 / analyse=0x3:0x113 / me=hex / subme=7 / psy=1 / psy_rd=1.00:0.00 / mixed_ref=1 / me_range=16 / chroma_me=1 / trellis=1 / 8x8dct=1 / cqm=0 / deadzone=21,11 / fast_pskip=1 / chroma_qp_offset=-2 / threads=18 / lookahead_threads=3 / sliced_threads=0 / nr=0 / decimate=1 / interlaced=0 / bluray_compat=0 / constrained_intra=0 / bframes=3 / b_pyramid=0 / b_adapt=1 / b_bias=0 / direct=1 / weightb=1 / open_gop=0 / weightp=2 / keyint=240 / keyint_min=24 / scenecut=40 / intra_refresh=0 / rc_lookahead=40 / rc=2pass / mbtree=1 / bitrate=2400 / ratetol=1.0 / qcomp=0.60 / qpmin=0 / qpmax=69 / qpstep=4 / cplxblur=20.0 / qblur=0.5 / vbv_maxrate=25000 / vbv_bufsize=25000 / nal_hrd=vbr / ip_ratio=1.40 / aq=1:1.00\nDefault                                  : Yes\nForced                                   : No\n\nAudio\n\nID                                       : 2\nFormat                                   : AC-3\nFormat/Info                              : Audio Coding 3\nMode extension                           : CM (complete main)\nFormat settings, Endianness              : Big\nCodec ID                                 : A_AC3\nDuration                                 : 1h 26mn\nBit rate mode                            : Constant\nBit rate                                 : 320 Kbps\nChannel(s)                               : 6 channels\nChannel positions                        : Front: L C R, Side: L R, LFE\nSampling rate                            : 48.0 KHz\nBit depth                                : 16 bits\nCompression mode                         : Lossy\nStream size                              : 198 MiB (12%)\nDefault                                  : Yes\nForced                                   : No","torrent":{"xt":"urn:btih:dbcfc12dcbb13ceaac920d7093b1100afa15c4af","amp;dn":"The+Lorax+%282012%29+%5BHSBS%5D+%5B3D%5D+%5BGreek+Audio%5D","amp;tr":["udp%3A%2F%2Ftracker.openbittorrent.com%3A80","udp%3A%2F%2Fopen.demonii.com%3A1337","udp%3A%2F%2Ftracker.coppersurfer.tk%3A6969","udp%3A%2F%2Fexodus.desync.com%3A6969"],"infoHash":"dbcfc12dcbb13ceaac920d7093b1100afa15c4af","infoHashBuffer":{"type":"Buffer","data":[219,207,193,45,203,177,60,234,172,146,13,112,147,177,16,10,250,21,196,175]},"announce":[],"urlList":[]}}